<svg width="49" height="67" viewBox="0 0 49 67" fill="none" xmlns="http://www.w3.org/2000/svg">
<path d="M24.4802 0.224609L21.4502 3.61681C21.4502 3.61681 16.279 9.47239 11.0674 17.0645C5.85584 24.6565 0.240234 33.7428 0.240234 42.4656C0.240234 48.8918 2.79409 55.0548 7.33997 59.5988C11.8858 64.1428 18.0514 66.6956 24.4802 66.6956C30.9091 66.6956 37.0746 64.1428 41.6205 59.5988C46.1664 55.0548 48.7202 48.8918 48.7202 42.4656C48.7202 33.7428 43.1046 24.6565 37.893 17.0645C32.6814 9.47239 27.5102 3.61681 27.5102 3.61681L24.4802 0.224609ZM24.4802 12.8646C26.2578 14.9645 27.8738 16.701 31.2674 21.6278C36.1558 28.7352 40.6402 37.7811 40.6402 42.4656C40.6402 51.4307 33.449 58.6189 24.4802 58.6189C15.5114 58.6189 8.32024 51.4307 8.32024 42.4656C8.32024 37.7811 12.8046 28.7352 17.693 21.6278C21.0866 16.701 22.7026 14.9645 24.4802 12.8646Z" fill="#3728B7"/>
</svg>
