<svg width="82" height="52" viewBox="0 0 82 52" fill="none" xmlns="http://www.w3.org/2000/svg">
<path d="M26.5998 5.48674H5.23983V43.4334H33.7198V12.6017H26.5998V5.48674ZM5.23983 0.743408H28.9732L38.4665 10.2301V43.4334C38.4665 44.6914 37.9664 45.8979 37.0762 46.7874C36.1861 47.677 34.9787 48.1767 33.7198 48.1767H5.23983C3.98094 48.1767 2.7736 47.677 1.88343 46.7874C0.993258 45.8979 0.493164 44.6914 0.493164 43.4334V5.48674C0.493164 4.22873 0.993258 3.02225 1.88343 2.1327C2.7736 1.24315 3.98094 0.743408 5.23983 0.743408ZM9.9865 22.0884H28.9732V26.8317H9.9865V22.0884ZM9.9865 31.5751H28.9732V36.3184H9.9865V31.5751Z" fill="#3629B7"/>
<path d="M45 33.0001C45.8218 32.3282 46.4759 31.5211 46.9228 30.6274C47.3696 29.7337 47.6 28.7719 47.6 27.8001C47.6 26.8283 47.3696 25.8665 46.9228 24.9728C46.4759 24.0791 45.8218 23.272 45 22.6001" stroke="#3629B7" stroke-width="5" stroke-linecap="round" stroke-linejoin="round"/>
<path d="M58 40.8C59.644 39.1189 60.9521 37.1006 61.8457 34.8665C62.7393 32.6325 63.2 30.2288 63.2 27.8C63.2 25.3713 62.7393 22.9676 61.8457 20.7336C60.9521 18.4995 59.644 16.4812 58 14.8" stroke="#3629B7" stroke-width="5" stroke-linecap="round" stroke-linejoin="round"/>
<path d="M68.3999 48.6C71.6873 45.9126 74.3036 42.6841 76.091 39.1093C77.8784 35.5345 78.7999 31.6874 78.7999 27.8C78.7999 23.9126 77.8784 20.0655 76.091 16.4907C74.3036 12.9159 71.6873 9.68743 68.3999 7" stroke="#3629B7" stroke-width="5" stroke-linecap="round" stroke-linejoin="round"/>
</svg>
