<svg width="92" height="64" viewBox="0 0 92 64" fill="none" xmlns="http://www.w3.org/2000/svg">
<path d="M84 22.13V22.4836L84.3334 22.6014C88.2015 23.9686 91 27.6702 91 32V53C91 58.4989 86.4989 63 81 63H60H11C5.48714 63 1 58.5129 1 53V39C1 33.4871 5.48714 29 11 29H42.5C44.1562 29 45.5 30.341 45.5 32C45.5 33.659 44.1562 35 42.5 35H11C8.79568 35 7 36.7915 7 39V53C7 55.2085 8.79568 57 11 57H50.13H50.8597L50.5963 56.3195C50.2004 55.2967 50 54.1684 50 53V32C50 27.6702 52.7985 23.9686 56.6666 22.6014L57 22.4836V22.13V14.5C57 7.04114 63.0411 1 70.5 1C77.9589 1 84 7.04114 84 14.5V22.13ZM77.5 22H78V21.5V14.5C78 12.0501 77.068 10.1762 75.6432 8.92006C74.2279 7.6723 72.3556 7.05888 70.5002 7.05819C68.6448 7.05749 66.7724 7.66952 65.3569 8.91706C63.9319 10.173 63 12.0477 63 14.5V21.5V22H63.5H77.5ZM81 57C83.2011 57 85 55.2011 85 53V32C85 29.7989 83.2011 28 81 28H60C57.7989 28 56 29.7989 56 32V53C56 55.2011 57.7989 57 60 57H81Z" fill="#3629B7" stroke="white"/>
<path d="M70.5 32C66.65 32 63.5 35.15 63.5 39C63.5 41.5865 64.8965 43.823 66.993 45.048L66.979 49.472C66.9615 54.1235 73.9615 54.1585 73.979 49.493L73.993 45.0585C73.9965 45.0585 74 45.055 74 45.055C76.1 43.83 77.5 41.59 77.5 39C77.5 35.15 74.35 32 70.5 32Z" fill="#3629B7"/>
<path d="M19.0255 40.0256L18 41.0511L16.9745 40.0256C13.6985 36.7496 8.75295 41.7021 12.0255 44.9746L13.051 46.0001L12.0255 47.0256C8.74595 50.3051 13.7335 55.2156 16.9745 51.9746L18 50.9491L19.0255 51.9746C22.2735 55.2226 27.254 50.3051 23.9745 47.0256L22.949 46.0001L23.9745 44.9746C27.2505 41.6986 22.298 36.7531 19.0255 40.0256Z" fill="#3629B7"/>
<path d="M40.0255 40.0256L39 41.0511L37.9745 40.0256C34.6985 36.7496 29.753 41.7021 33.0255 44.9746L34.051 46.0001L33.0255 47.0256C30.81 49.2411 32.4165 53.0001 35.5 53.0001C36.396 53.0001 37.292 52.6571 37.9745 51.9746L39 50.9491L40.0255 51.9746C40.708 52.6571 41.604 53.0001 42.5 53.0001C45.5835 53.0001 47.19 49.2411 44.9745 47.0256L43.949 46.0001L44.9745 44.9746C48.2505 41.6986 43.298 36.7531 40.0255 40.0256Z" fill="#3629B7"/>
</svg>
