<svg width="51" height="53" viewBox="0 0 51 53" fill="none" xmlns="http://www.w3.org/2000/svg">
<path d="M43.7374 24.0909H50.5112V28.9091H43.7374V24.0909ZM0.836914 24.0909H7.61068V28.9091H0.836914V24.0909ZM27.932 0V7.22727H23.4161V0H27.932ZM9.68797 6.02273L14.4973 11.1782L11.2911 14.575L6.48172 9.46773L9.68797 6.02273ZM36.8508 11.1541L41.6376 6.02273L44.8664 9.46773L40.057 14.575L36.8508 11.1541ZM25.674 12.0455C29.2671 12.0455 32.7129 13.5683 35.2536 16.2791C37.7943 18.9898 39.2216 22.6664 39.2216 26.5C39.2216 31.8482 36.4895 36.5218 32.4478 39.0273V43.3636C32.4478 44.0026 32.2099 44.6153 31.7865 45.0671C31.363 45.5189 30.7887 45.7727 30.1899 45.7727H21.1582C20.5594 45.7727 19.9851 45.5189 19.5616 45.0671C19.1382 44.6153 18.9003 44.0026 18.9003 43.3636V39.0273C14.8586 36.5218 12.1265 31.8482 12.1265 26.5C12.1265 22.6664 13.5538 18.9898 16.0945 16.2791C18.6352 13.5683 22.081 12.0455 25.674 12.0455ZM30.1899 48.1818V50.5909C30.1899 51.2298 29.952 51.8426 29.5286 52.2944C29.1051 52.7462 28.5308 53 27.932 53H23.4161C22.8173 53 22.243 52.7462 21.8195 52.2944C21.3961 51.8426 21.1582 51.2298 21.1582 50.5909V48.1818H30.1899ZM23.4161 40.9545H27.932V35.8232C31.8382 34.7632 34.7057 30.9809 34.7057 26.5C34.7057 23.9443 33.7542 21.4932 32.0604 19.6861C30.3666 17.8789 28.0694 16.8636 25.674 16.8636C23.2787 16.8636 20.9815 17.8789 19.2877 19.6861C17.5939 21.4932 16.6424 23.9443 16.6424 26.5C16.6424 30.9809 19.5099 34.7632 23.4161 35.8232V40.9545Z" fill="#3729B7"/>
</svg>
