<svg width="81" height="69" viewBox="0 0 81 69" fill="none" xmlns="http://www.w3.org/2000/svg">
<path d="M40.5 25.875C37.8147 25.875 35.2393 26.7837 33.3405 28.4012C31.4417 30.0187 30.375 32.2125 30.375 34.5C30.375 36.7875 31.4417 38.9813 33.3405 40.5988C35.2393 42.2163 37.8147 43.125 40.5 43.125C43.1853 43.125 45.7606 42.2163 47.6595 40.5988C49.5583 38.9813 50.625 36.7875 50.625 34.5C50.625 32.2125 49.5583 30.0187 47.6595 28.4012C45.7606 26.7837 43.1853 25.875 40.5 25.875ZM40.5 48.875C36.0245 48.875 31.7322 47.3605 28.5676 44.6647C25.4029 41.9688 23.625 38.3125 23.625 34.5C23.625 30.6875 25.4029 27.0312 28.5676 24.3353C31.7322 21.6395 36.0245 20.125 40.5 20.125C44.9755 20.125 49.2677 21.6395 52.4324 24.3353C55.5971 27.0312 57.375 30.6875 57.375 34.5C57.375 38.3125 55.5971 41.9688 52.4324 44.6647C49.2677 47.3605 44.9755 48.875 40.5 48.875ZM40.5 12.9375C23.625 12.9375 9.21375 21.8787 3.375 34.5C9.21375 47.1213 23.625 56.0625 40.5 56.0625C57.375 56.0625 71.7862 47.1213 77.625 34.5C71.7862 21.8787 57.375 12.9375 40.5 12.9375Z" fill="#3629B7"/>
</svg>
