<svg width="57" height="40" viewBox="0 0 57 40" fill="none" xmlns="http://www.w3.org/2000/svg">
<path d="M37.9075 20C37.9075 18.4399 38.5181 16.9437 39.6049 15.8405C40.6917 14.7374 42.1658 14.1176 43.7028 14.1176C45.2398 14.1176 46.7139 14.7374 47.8008 15.8405C48.8876 16.9437 49.4982 18.4399 49.4982 20C49.4982 21.5601 48.8876 23.0563 47.8008 24.1595C46.7139 25.2626 45.2398 25.8824 43.7028 25.8824C42.1658 25.8824 40.6917 25.2626 39.6049 24.1595C38.5181 23.0563 37.9075 21.5601 37.9075 20ZM30.9531 0V40H56.4526V0H30.9531ZM51.8163 30.5882C49.2663 30.5882 47.18 32.7059 47.18 35.2941H40.2256C40.2256 34.046 39.7372 32.8491 38.8677 31.9666C37.9982 31.084 36.819 30.5882 35.5894 30.5882V9.41177C38.1625 9.41177 40.2256 7.31765 40.2256 4.70588H47.18C47.18 5.95396 47.6685 7.15092 48.538 8.03344C49.4074 8.91597 50.5867 9.41177 51.8163 9.41177V30.5882ZM17.0443 7.05882C19.5943 7.05882 21.6806 9.17647 21.6806 11.7647C21.6806 14.3529 19.5943 16.4706 17.0443 16.4706C14.4944 16.4706 12.408 14.3529 12.408 11.7647C12.408 9.17647 14.4944 7.05882 17.0443 7.05882ZM17.0443 2.35294C11.9212 2.35294 7.77178 6.56471 7.77178 11.7647C7.77178 16.9647 11.9212 21.1765 17.0443 21.1765C22.1674 21.1765 26.3168 16.9647 26.3168 11.7647C26.3168 6.56471 22.1674 2.35294 17.0443 2.35294ZM17.0443 25.8824C8.07314 25.8824 0.817383 30.0941 0.817383 35.2941V40H26.3168V35.2941H5.45365C5.45365 33.9294 9.51038 30.5882 17.0443 30.5882C21.2865 30.5882 24.3928 31.6471 26.3168 32.8235V27.5765C23.6973 26.5176 20.5215 25.8824 17.0443 25.8824Z" fill="#3728B7"/>
</svg>
